# xmcd CD database file
#
# Track frame offsets:
#	150
#	18650
#	42915
#	67955
#	86460
#	114490
#	136100
#	153312
#	168492
#
# Disc length: 2581 seconds
#
# Revision: 1
# Processed by: cddbd v1.5.1PL0 Copyright (c) Steve Scherf et al.
# Submitted via: CD2WAV32(JP) R3.22
#
DISCID=6a0a1309
DTITLE=Various Artist - GALLFORCE MEMORIAL SONGS
DYEAR=1992
DGENRE=Anime
TTITLE0=スターフロント (Instrumenarl)
TTITLE1=鈴木聖美 - 戦え!! レクイエム
TTITLE2=LOOK - Round at the night
TTITLE3=小比類巻かほる - 両手いっぱいのジョニー
TTITLE4=白井貴子 - COSMIC CHILD
TTITLE5=PEARL - ボトムライン
TTITLE6=レアーズ (松井菜桜子 鶴ひろみ 原えりこ 川村万梨阿 本多知恵子) - レア・ガルフォースのテーマ ～若き女神の伝説
TTITLE7=レアーズ (松井菜桜子 鶴ひろみ 原えりこ 川村万梨阿 本多知恵子) - FLY ME WAY ～夢に吹く風
TTITLE8=GALLFORCE ETERNAL BAND (川村万梨阿 松井菜桜子 渡辺菜生子 山本百合子 富沢美智恵 鶴ひろみ 原えりこ) - 笑顔のスパイたち
EXTD=
EXTT0=1986
EXTT1=1986
EXTT2=1986
EXTT3=1986
EXTT4=1987
EXTT5=1988
EXTT6=1989
EXTT7=1989
EXTT8=1986
PLAYORDER=
